<mxfile host="app.diagrams.net" agent="Mozilla/5.0 (Macintosh; Intel Mac OS X 10_15_7) AppleWebKit/537.36 (KHTML, like Gecko) Chrome/130.0.0.0 Safari/537.36" version="24.8.6">
  <diagram name="Page-1" id="LbDcCqR6IsjYl6eZ5EA2">
    <mxGraphModel grid="1" page="1" gridSize="10" guides="1" tooltips="1" connect="1" arrows="1" fold="1" pageScale="1" pageWidth="850" pageHeight="1100" math="0" shadow="0">
      <root>
        <mxCell id="0" />
        <mxCell id="1" parent="0" />
        <mxCell id="lbVcA_wqIR2xqUrgAl_o-67" value="" style="shape=folder;fontStyle=1;spacingTop=10;tabWidth=40;tabHeight=14;tabPosition=left;html=1;whiteSpace=wrap;" vertex="1" parent="1">
          <mxGeometry x="110" y="30" width="890" height="1140" as="geometry" />
        </mxCell>
        <mxCell id="lbVcA_wqIR2xqUrgAl_o-1" value="«Entity»&lt;div&gt;Payment&lt;/div&gt;" style="swimlane;fontStyle=1;align=center;verticalAlign=top;childLayout=stackLayout;horizontal=1;startSize=40;horizontalStack=0;resizeParent=1;resizeParentMax=0;resizeLast=0;collapsible=1;marginBottom=0;whiteSpace=wrap;html=1;" vertex="1" parent="1">
          <mxGeometry x="760" y="1020" width="160" height="100" as="geometry" />
        </mxCell>
        <mxCell id="lbVcA_wqIR2xqUrgAl_o-2" value="+ field: type" style="text;strokeColor=none;fillColor=none;align=left;verticalAlign=top;spacingLeft=4;spacingRight=4;overflow=hidden;rotatable=0;points=[[0,0.5],[1,0.5]];portConstraint=eastwest;whiteSpace=wrap;html=1;" vertex="1" parent="lbVcA_wqIR2xqUrgAl_o-1">
          <mxGeometry y="40" width="160" height="26" as="geometry" />
        </mxCell>
        <mxCell id="lbVcA_wqIR2xqUrgAl_o-3" value="" style="line;strokeWidth=1;fillColor=none;align=left;verticalAlign=middle;spacingTop=-1;spacingLeft=3;spacingRight=3;rotatable=0;labelPosition=right;points=[];portConstraint=eastwest;strokeColor=inherit;" vertex="1" parent="lbVcA_wqIR2xqUrgAl_o-1">
          <mxGeometry y="66" width="160" height="8" as="geometry" />
        </mxCell>
        <mxCell id="lbVcA_wqIR2xqUrgAl_o-4" value="+ method(type): type" style="text;strokeColor=none;fillColor=none;align=left;verticalAlign=top;spacingLeft=4;spacingRight=4;overflow=hidden;rotatable=0;points=[[0,0.5],[1,0.5]];portConstraint=eastwest;whiteSpace=wrap;html=1;" vertex="1" parent="lbVcA_wqIR2xqUrgAl_o-1">
          <mxGeometry y="74" width="160" height="26" as="geometry" />
        </mxCell>
        <mxCell id="lbVcA_wqIR2xqUrgAl_o-5" value="&lt;div&gt;«Entity»&lt;/div&gt;User" style="swimlane;fontStyle=1;align=center;verticalAlign=top;childLayout=stackLayout;horizontal=1;startSize=40;horizontalStack=0;resizeParent=1;resizeParentMax=0;resizeLast=0;collapsible=1;marginBottom=0;whiteSpace=wrap;html=1;" vertex="1" parent="1">
          <mxGeometry x="140" y="370" width="160" height="180" as="geometry" />
        </mxCell>
        <mxCell id="lbVcA_wqIR2xqUrgAl_o-6" value="- name&lt;div&gt;- email&lt;/div&gt;&lt;div&gt;- isRegistered&lt;/div&gt;&lt;div&gt;- paymentInfo&lt;/div&gt;" style="text;strokeColor=none;fillColor=none;align=left;verticalAlign=top;spacingLeft=4;spacingRight=4;overflow=hidden;rotatable=0;points=[[0,0.5],[1,0.5]];portConstraint=eastwest;whiteSpace=wrap;html=1;" vertex="1" parent="lbVcA_wqIR2xqUrgAl_o-5">
          <mxGeometry y="40" width="160" height="80" as="geometry" />
        </mxCell>
        <mxCell id="lbVcA_wqIR2xqUrgAl_o-7" value="" style="line;strokeWidth=1;fillColor=none;align=left;verticalAlign=middle;spacingTop=-1;spacingLeft=3;spacingRight=3;rotatable=0;labelPosition=right;points=[];portConstraint=eastwest;strokeColor=inherit;" vertex="1" parent="lbVcA_wqIR2xqUrgAl_o-5">
          <mxGeometry y="120" width="160" height="8" as="geometry" />
        </mxCell>
        <mxCell id="lbVcA_wqIR2xqUrgAl_o-8" value="+ register()&lt;div&gt;+ viewMovies()&lt;/div&gt;" style="text;strokeColor=none;fillColor=none;align=left;verticalAlign=top;spacingLeft=4;spacingRight=4;overflow=hidden;rotatable=0;points=[[0,0.5],[1,0.5]];portConstraint=eastwest;whiteSpace=wrap;html=1;" vertex="1" parent="lbVcA_wqIR2xqUrgAl_o-5">
          <mxGeometry y="128" width="160" height="52" as="geometry" />
        </mxCell>
        <mxCell id="lbVcA_wqIR2xqUrgAl_o-9" value="«Entity»&lt;div&gt;Ticket&lt;/div&gt;" style="swimlane;fontStyle=1;align=center;verticalAlign=top;childLayout=stackLayout;horizontal=1;startSize=40;horizontalStack=0;resizeParent=1;resizeParentMax=0;resizeLast=0;collapsible=1;marginBottom=0;whiteSpace=wrap;html=1;" vertex="1" parent="1">
          <mxGeometry x="760" y="810" width="160" height="124" as="geometry" />
        </mxCell>
        <mxCell id="lbVcA_wqIR2xqUrgAl_o-10" value="-seatNumber: String&lt;div&gt;- price: Double&lt;/div&gt;&lt;div&gt;- showtime: Showtime&lt;/div&gt;" style="text;strokeColor=none;fillColor=none;align=left;verticalAlign=top;spacingLeft=4;spacingRight=4;overflow=hidden;rotatable=0;points=[[0,0.5],[1,0.5]];portConstraint=eastwest;whiteSpace=wrap;html=1;" vertex="1" parent="lbVcA_wqIR2xqUrgAl_o-9">
          <mxGeometry y="40" width="160" height="50" as="geometry" />
        </mxCell>
        <mxCell id="lbVcA_wqIR2xqUrgAl_o-11" value="" style="line;strokeWidth=1;fillColor=none;align=left;verticalAlign=middle;spacingTop=-1;spacingLeft=3;spacingRight=3;rotatable=0;labelPosition=right;points=[];portConstraint=eastwest;strokeColor=inherit;" vertex="1" parent="lbVcA_wqIR2xqUrgAl_o-9">
          <mxGeometry y="90" width="160" height="8" as="geometry" />
        </mxCell>
        <mxCell id="lbVcA_wqIR2xqUrgAl_o-12" value="+ method(type): type" style="text;strokeColor=none;fillColor=none;align=left;verticalAlign=top;spacingLeft=4;spacingRight=4;overflow=hidden;rotatable=0;points=[[0,0.5],[1,0.5]];portConstraint=eastwest;whiteSpace=wrap;html=1;" vertex="1" parent="lbVcA_wqIR2xqUrgAl_o-9">
          <mxGeometry y="98" width="160" height="26" as="geometry" />
        </mxCell>
        <mxCell id="lbVcA_wqIR2xqUrgAl_o-13" value="«Entity»&lt;div&gt;RegisteredUser&lt;/div&gt;" style="swimlane;fontStyle=1;align=center;verticalAlign=top;childLayout=stackLayout;horizontal=1;startSize=40;horizontalStack=0;resizeParent=1;resizeParentMax=0;resizeLast=0;collapsible=1;marginBottom=0;whiteSpace=wrap;html=1;" vertex="1" parent="1">
          <mxGeometry x="140" y="640" width="160" height="160" as="geometry" />
        </mxCell>
        <mxCell id="lbVcA_wqIR2xqUrgAl_o-14" value="- username&lt;div&gt;- password&lt;/div&gt;" style="text;strokeColor=none;fillColor=none;align=left;verticalAlign=top;spacingLeft=4;spacingRight=4;overflow=hidden;rotatable=0;points=[[0,0.5],[1,0.5]];portConstraint=eastwest;whiteSpace=wrap;html=1;" vertex="1" parent="lbVcA_wqIR2xqUrgAl_o-13">
          <mxGeometry y="40" width="160" height="50" as="geometry" />
        </mxCell>
        <mxCell id="lbVcA_wqIR2xqUrgAl_o-15" value="" style="line;strokeWidth=1;fillColor=none;align=left;verticalAlign=middle;spacingTop=-1;spacingLeft=3;spacingRight=3;rotatable=0;labelPosition=right;points=[];portConstraint=eastwest;strokeColor=inherit;" vertex="1" parent="lbVcA_wqIR2xqUrgAl_o-13">
          <mxGeometry y="90" width="160" height="8" as="geometry" />
        </mxCell>
        <mxCell id="lbVcA_wqIR2xqUrgAl_o-16" value="+ login()&lt;div&gt;+ cancelWithoutFee()&lt;/div&gt;" style="text;strokeColor=none;fillColor=none;align=left;verticalAlign=top;spacingLeft=4;spacingRight=4;overflow=hidden;rotatable=0;points=[[0,0.5],[1,0.5]];portConstraint=eastwest;whiteSpace=wrap;html=1;" vertex="1" parent="lbVcA_wqIR2xqUrgAl_o-13">
          <mxGeometry y="98" width="160" height="62" as="geometry" />
        </mxCell>
        <mxCell id="lbVcA_wqIR2xqUrgAl_o-17" value="&lt;div&gt;«Entity»&lt;/div&gt;Seat" style="swimlane;fontStyle=1;align=center;verticalAlign=top;childLayout=stackLayout;horizontal=1;startSize=40;horizontalStack=0;resizeParent=1;resizeParentMax=0;resizeLast=0;collapsible=1;marginBottom=0;whiteSpace=wrap;html=1;" vertex="1" parent="1">
          <mxGeometry x="760" y="350" width="160" height="170" as="geometry" />
        </mxCell>
        <mxCell id="lbVcA_wqIR2xqUrgAl_o-18" value="-seatNumber: String&lt;div&gt;- row: int&lt;/div&gt;&lt;div&gt;- isAvailable&lt;/div&gt;" style="text;strokeColor=none;fillColor=none;align=left;verticalAlign=top;spacingLeft=4;spacingRight=4;overflow=hidden;rotatable=0;points=[[0,0.5],[1,0.5]];portConstraint=eastwest;whiteSpace=wrap;html=1;" vertex="1" parent="lbVcA_wqIR2xqUrgAl_o-17">
          <mxGeometry y="40" width="160" height="60" as="geometry" />
        </mxCell>
        <mxCell id="lbVcA_wqIR2xqUrgAl_o-19" value="" style="line;strokeWidth=1;fillColor=none;align=left;verticalAlign=middle;spacingTop=-1;spacingLeft=3;spacingRight=3;rotatable=0;labelPosition=right;points=[];portConstraint=eastwest;strokeColor=inherit;" vertex="1" parent="lbVcA_wqIR2xqUrgAl_o-17">
          <mxGeometry y="100" width="160" height="8" as="geometry" />
        </mxCell>
        <mxCell id="lbVcA_wqIR2xqUrgAl_o-20" value="+reserve(): Boolean&lt;div&gt;+ release(): Boolean&lt;/div&gt;" style="text;strokeColor=none;fillColor=none;align=left;verticalAlign=top;spacingLeft=4;spacingRight=4;overflow=hidden;rotatable=0;points=[[0,0.5],[1,0.5]];portConstraint=eastwest;whiteSpace=wrap;html=1;" vertex="1" parent="lbVcA_wqIR2xqUrgAl_o-17">
          <mxGeometry y="108" width="160" height="62" as="geometry" />
        </mxCell>
        <mxCell id="lbVcA_wqIR2xqUrgAl_o-21" value="&lt;div&gt;«Entity»&lt;/div&gt;Showtime" style="swimlane;fontStyle=1;align=center;verticalAlign=top;childLayout=stackLayout;horizontal=1;startSize=40;horizontalStack=0;resizeParent=1;resizeParentMax=0;resizeLast=0;collapsible=1;marginBottom=0;whiteSpace=wrap;html=1;" vertex="1" parent="1">
          <mxGeometry x="425" y="970" width="160" height="138" as="geometry" />
        </mxCell>
        <mxCell id="lbVcA_wqIR2xqUrgAl_o-22" value="- time&lt;div&gt;- availableSeats&lt;/div&gt;" style="text;strokeColor=none;fillColor=none;align=left;verticalAlign=top;spacingLeft=4;spacingRight=4;overflow=hidden;rotatable=0;points=[[0,0.5],[1,0.5]];portConstraint=eastwest;whiteSpace=wrap;html=1;" vertex="1" parent="lbVcA_wqIR2xqUrgAl_o-21">
          <mxGeometry y="40" width="160" height="64" as="geometry" />
        </mxCell>
        <mxCell id="lbVcA_wqIR2xqUrgAl_o-23" value="" style="line;strokeWidth=1;fillColor=none;align=left;verticalAlign=middle;spacingTop=-1;spacingLeft=3;spacingRight=3;rotatable=0;labelPosition=right;points=[];portConstraint=eastwest;strokeColor=inherit;" vertex="1" parent="lbVcA_wqIR2xqUrgAl_o-21">
          <mxGeometry y="104" width="160" height="8" as="geometry" />
        </mxCell>
        <mxCell id="lbVcA_wqIR2xqUrgAl_o-24" value="+ method(type): type" style="text;strokeColor=none;fillColor=none;align=left;verticalAlign=top;spacingLeft=4;spacingRight=4;overflow=hidden;rotatable=0;points=[[0,0.5],[1,0.5]];portConstraint=eastwest;whiteSpace=wrap;html=1;" vertex="1" parent="lbVcA_wqIR2xqUrgAl_o-21">
          <mxGeometry y="112" width="160" height="26" as="geometry" />
        </mxCell>
        <mxCell id="lbVcA_wqIR2xqUrgAl_o-25" value="&lt;div&gt;«Entity»&lt;/div&gt;AcmePlex" style="swimlane;fontStyle=1;align=center;verticalAlign=top;childLayout=stackLayout;horizontal=1;startSize=40;horizontalStack=0;resizeParent=1;resizeParentMax=0;resizeLast=0;collapsible=1;marginBottom=0;whiteSpace=wrap;html=1;" vertex="1" parent="1">
          <mxGeometry x="370" y="80" width="320" height="180" as="geometry" />
        </mxCell>
        <mxCell id="lbVcA_wqIR2xqUrgAl_o-26" value="- theaters: List&amp;lt;Theater&amp;gt;&lt;div&gt;- location: String&lt;/div&gt;" style="text;strokeColor=none;fillColor=none;align=left;verticalAlign=top;spacingLeft=4;spacingRight=4;overflow=hidden;rotatable=0;points=[[0,0.5],[1,0.5]];portConstraint=eastwest;whiteSpace=wrap;html=1;" vertex="1" parent="lbVcA_wqIR2xqUrgAl_o-25">
          <mxGeometry y="40" width="320" height="30" as="geometry" />
        </mxCell>
        <mxCell id="lbVcA_wqIR2xqUrgAl_o-27" value="" style="line;strokeWidth=1;fillColor=none;align=left;verticalAlign=middle;spacingTop=-1;spacingLeft=3;spacingRight=3;rotatable=0;labelPosition=right;points=[];portConstraint=eastwest;strokeColor=inherit;" vertex="1" parent="lbVcA_wqIR2xqUrgAl_o-25">
          <mxGeometry y="70" width="320" height="8" as="geometry" />
        </mxCell>
        <mxCell id="lbVcA_wqIR2xqUrgAl_o-28" value="+ addTheater(theater: Theater): void&lt;div&gt;+ getTheaters(): List&amp;lt;Theater&amp;gt;&lt;br&gt;&lt;div&gt;+ getMovies(): List&amp;lt;Movie&amp;gt;&lt;/div&gt;&lt;div&gt;+ findTheater(name: String): Theater&lt;/div&gt;&lt;div&gt;+ updateShowtimes(movie: Movie, theater: Theater): void&lt;/div&gt;&lt;/div&gt;" style="text;strokeColor=none;fillColor=none;align=left;verticalAlign=top;spacingLeft=4;spacingRight=4;overflow=hidden;rotatable=0;points=[[0,0.5],[1,0.5]];portConstraint=eastwest;whiteSpace=wrap;html=1;" vertex="1" parent="lbVcA_wqIR2xqUrgAl_o-25">
          <mxGeometry y="78" width="320" height="102" as="geometry" />
        </mxCell>
        <mxCell id="lbVcA_wqIR2xqUrgAl_o-33" value="«Entity»&lt;div&gt;Theater&lt;/div&gt;" style="swimlane;fontStyle=1;align=center;verticalAlign=top;childLayout=stackLayout;horizontal=1;startSize=40;horizontalStack=0;resizeParent=1;resizeParentMax=0;resizeLast=0;collapsible=1;marginBottom=0;whiteSpace=wrap;html=1;" vertex="1" parent="1">
          <mxGeometry x="395" y="350" width="260" height="180" as="geometry" />
        </mxCell>
        <mxCell id="lbVcA_wqIR2xqUrgAl_o-34" value="- name: String&lt;div&gt;- location: String&lt;/div&gt;&lt;div&gt;- capacity: int&lt;/div&gt;&lt;div&gt;- movies: List&amp;lt;Movie&amp;gt;&lt;/div&gt;&lt;div&gt;- showtimes: List&amp;lt;Showtime&amp;gt;&lt;/div&gt;" style="text;strokeColor=none;fillColor=none;align=left;verticalAlign=top;spacingLeft=4;spacingRight=4;overflow=hidden;rotatable=0;points=[[0,0.5],[1,0.5]];portConstraint=eastwest;whiteSpace=wrap;html=1;" vertex="1" parent="lbVcA_wqIR2xqUrgAl_o-33">
          <mxGeometry y="40" width="260" height="80" as="geometry" />
        </mxCell>
        <mxCell id="lbVcA_wqIR2xqUrgAl_o-35" value="" style="line;strokeWidth=1;fillColor=none;align=left;verticalAlign=middle;spacingTop=-1;spacingLeft=3;spacingRight=3;rotatable=0;labelPosition=right;points=[];portConstraint=eastwest;strokeColor=inherit;" vertex="1" parent="lbVcA_wqIR2xqUrgAl_o-33">
          <mxGeometry y="120" width="260" height="8" as="geometry" />
        </mxCell>
        <mxCell id="lbVcA_wqIR2xqUrgAl_o-36" value="+ addMovie(movie: Movie): void&lt;div&gt;+ getShowTimes(): List&amp;lt;Showtime&amp;gt;&lt;/div&gt;&lt;div&gt;+ getAvailableSeats(showtime: Showtime): int&lt;/div&gt;" style="text;strokeColor=none;fillColor=none;align=left;verticalAlign=top;spacingLeft=4;spacingRight=4;overflow=hidden;rotatable=0;points=[[0,0.5],[1,0.5]];portConstraint=eastwest;whiteSpace=wrap;html=1;" vertex="1" parent="lbVcA_wqIR2xqUrgAl_o-33">
          <mxGeometry y="128" width="260" height="52" as="geometry" />
        </mxCell>
        <mxCell id="lbVcA_wqIR2xqUrgAl_o-44" value="" style="endArrow=block;endSize=16;endFill=0;html=1;rounded=0;exitX=0.5;exitY=0;exitDx=0;exitDy=0;entryX=0.494;entryY=1.019;entryDx=0;entryDy=0;entryPerimeter=0;" edge="1" parent="1" source="lbVcA_wqIR2xqUrgAl_o-13" target="lbVcA_wqIR2xqUrgAl_o-8">
          <mxGeometry x="0.011" width="160" relative="1" as="geometry">
            <mxPoint x="490" y="680" as="sourcePoint" />
            <mxPoint x="650" y="680" as="targetPoint" />
            <mxPoint as="offset" />
          </mxGeometry>
        </mxCell>
        <mxCell id="lbVcA_wqIR2xqUrgAl_o-45" value="" style="endArrow=diamondThin;endFill=1;endSize=24;html=1;rounded=0;exitX=0.5;exitY=0;exitDx=0;exitDy=0;entryX=0.484;entryY=1.139;entryDx=0;entryDy=0;entryPerimeter=0;" edge="1" parent="1" source="lbVcA_wqIR2xqUrgAl_o-33" target="lbVcA_wqIR2xqUrgAl_o-28">
          <mxGeometry width="160" relative="1" as="geometry">
            <mxPoint x="400" y="660" as="sourcePoint" />
            <mxPoint x="560" y="660" as="targetPoint" />
          </mxGeometry>
        </mxCell>
        <mxCell id="lbVcA_wqIR2xqUrgAl_o-47" value="" style="endArrow=none;html=1;edgeStyle=orthogonalEdgeStyle;rounded=0;exitX=0.5;exitY=1;exitDx=0;exitDy=0;entryX=0.563;entryY=0.067;entryDx=0;entryDy=0;entryPerimeter=0;" edge="1" parent="1" source="lbVcA_wqIR2xqUrgAl_o-33" target="lbVcA_wqIR2xqUrgAl_o-69">
          <mxGeometry relative="1" as="geometry">
            <mxPoint x="480" y="460" as="sourcePoint" />
            <mxPoint x="525" y="580" as="targetPoint" />
          </mxGeometry>
        </mxCell>
        <mxCell id="lbVcA_wqIR2xqUrgAl_o-48" value="&lt;span style=&quot;text-align: right;&quot;&gt;1..*&lt;/span&gt;" style="edgeLabel;resizable=0;html=1;align=left;verticalAlign=bottom;" connectable="0" vertex="1" parent="lbVcA_wqIR2xqUrgAl_o-47">
          <mxGeometry x="-1" relative="1" as="geometry">
            <mxPoint y="20" as="offset" />
          </mxGeometry>
        </mxCell>
        <mxCell id="lbVcA_wqIR2xqUrgAl_o-49" value="1..*" style="edgeLabel;resizable=0;html=1;align=right;verticalAlign=bottom;" connectable="0" vertex="1" parent="lbVcA_wqIR2xqUrgAl_o-47">
          <mxGeometry x="1" relative="1" as="geometry">
            <mxPoint y="-10" as="offset" />
          </mxGeometry>
        </mxCell>
        <mxCell id="lbVcA_wqIR2xqUrgAl_o-50" value="&lt;span style=&quot;color: rgb(0, 0, 0); font-family: Helvetica; font-size: 11px; font-style: normal; font-variant-ligatures: normal; font-variant-caps: normal; font-weight: 400; letter-spacing: normal; orphans: 2; text-align: right; text-indent: 0px; text-transform: none; widows: 2; word-spacing: 0px; -webkit-text-stroke-width: 0px; white-space: nowrap; background-color: rgb(255, 255, 255); text-decoration-thickness: initial; text-decoration-style: initial; text-decoration-color: initial; display: inline !important; float: none;&quot;&gt;1..*&lt;/span&gt;" style="text;whiteSpace=wrap;html=1;" vertex="1" parent="1">
          <mxGeometry x="530" y="330" width="50" height="20" as="geometry" />
        </mxCell>
        <mxCell id="lbVcA_wqIR2xqUrgAl_o-51" value="1" style="text;html=1;align=center;verticalAlign=middle;resizable=0;points=[];autosize=1;strokeColor=none;fillColor=none;" vertex="1" parent="1">
          <mxGeometry x="525" y="260" width="30" height="30" as="geometry" />
        </mxCell>
        <mxCell id="lbVcA_wqIR2xqUrgAl_o-52" value="" style="endArrow=diamondThin;endFill=0;endSize=24;html=1;rounded=0;exitX=0.5;exitY=0;exitDx=0;exitDy=0;entryX=0.414;entryY=1.098;entryDx=0;entryDy=0;entryPerimeter=0;" edge="1" parent="1" source="lbVcA_wqIR2xqUrgAl_o-21" target="lbVcA_wqIR2xqUrgAl_o-72">
          <mxGeometry width="160" relative="1" as="geometry">
            <mxPoint x="480" y="740" as="sourcePoint" />
            <mxPoint x="525" y="740" as="targetPoint" />
          </mxGeometry>
        </mxCell>
        <mxCell id="lbVcA_wqIR2xqUrgAl_o-53" value="&lt;span style=&quot;color: rgb(0, 0, 0); font-family: Helvetica; font-size: 11px; font-style: normal; font-variant-ligatures: normal; font-variant-caps: normal; font-weight: 400; letter-spacing: normal; orphans: 2; text-align: right; text-indent: 0px; text-transform: none; widows: 2; word-spacing: 0px; -webkit-text-stroke-width: 0px; white-space: nowrap; background-color: rgb(255, 255, 255); text-decoration-thickness: initial; text-decoration-style: initial; text-decoration-color: initial; display: inline !important; float: none;&quot;&gt;1..*&lt;/span&gt;" style="text;whiteSpace=wrap;html=1;" vertex="1" parent="1">
          <mxGeometry x="515" y="810" width="50" height="20" as="geometry" />
        </mxCell>
        <mxCell id="lbVcA_wqIR2xqUrgAl_o-54" value="&lt;span style=&quot;color: rgb(0, 0, 0); font-family: Helvetica; font-size: 11px; font-style: normal; font-variant-ligatures: normal; font-variant-caps: normal; font-weight: 400; letter-spacing: normal; orphans: 2; text-align: right; text-indent: 0px; text-transform: none; widows: 2; word-spacing: 0px; -webkit-text-stroke-width: 0px; white-space: nowrap; background-color: rgb(255, 255, 255); text-decoration-thickness: initial; text-decoration-style: initial; text-decoration-color: initial; display: inline !important; float: none;&quot;&gt;1..*&lt;/span&gt;" style="text;whiteSpace=wrap;html=1;" vertex="1" parent="1">
          <mxGeometry x="700" y="780" width="50" height="20" as="geometry" />
        </mxCell>
        <mxCell id="lbVcA_wqIR2xqUrgAl_o-58" value="" style="endArrow=none;html=1;rounded=0;entryX=0;entryY=0.5;entryDx=0;entryDy=0;exitX=1;exitY=0.5;exitDx=0;exitDy=0;" edge="1" parent="1" source="lbVcA_wqIR2xqUrgAl_o-22" target="lbVcA_wqIR2xqUrgAl_o-10">
          <mxGeometry width="50" height="50" relative="1" as="geometry">
            <mxPoint x="500" y="860" as="sourcePoint" />
            <mxPoint x="550" y="810" as="targetPoint" />
          </mxGeometry>
        </mxCell>
        <mxCell id="lbVcA_wqIR2xqUrgAl_o-59" value="«uses»" style="text;html=1;align=center;verticalAlign=middle;resizable=0;points=[];autosize=1;strokeColor=none;fillColor=none;" vertex="1" parent="1">
          <mxGeometry x="640" y="970" width="60" height="30" as="geometry" />
        </mxCell>
        <mxCell id="lbVcA_wqIR2xqUrgAl_o-60" value="" style="endArrow=none;html=1;rounded=0;exitX=0.5;exitY=0;exitDx=0;exitDy=0;entryX=0.5;entryY=1.154;entryDx=0;entryDy=0;entryPerimeter=0;" edge="1" parent="1" source="lbVcA_wqIR2xqUrgAl_o-1" target="lbVcA_wqIR2xqUrgAl_o-12">
          <mxGeometry width="50" height="50" relative="1" as="geometry">
            <mxPoint x="410" y="1000" as="sourcePoint" />
            <mxPoint x="460" y="950" as="targetPoint" />
          </mxGeometry>
        </mxCell>
        <mxCell id="lbVcA_wqIR2xqUrgAl_o-61" value="" style="endArrow=none;html=1;edgeStyle=orthogonalEdgeStyle;rounded=0;exitX=1;exitY=0.5;exitDx=0;exitDy=0;entryX=0;entryY=0.5;entryDx=0;entryDy=0;" edge="1" parent="1" source="lbVcA_wqIR2xqUrgAl_o-8" target="lbVcA_wqIR2xqUrgAl_o-12">
          <mxGeometry relative="1" as="geometry">
            <mxPoint x="320" y="520" as="sourcePoint" />
            <mxPoint x="710" y="950" as="targetPoint" />
            <Array as="points">
              <mxPoint x="340" y="524" />
              <mxPoint x="340" y="550" />
              <mxPoint x="341" y="550" />
              <mxPoint x="341" y="936" />
              <mxPoint x="760" y="936" />
            </Array>
          </mxGeometry>
        </mxCell>
        <mxCell id="lbVcA_wqIR2xqUrgAl_o-62" value="1" style="edgeLabel;resizable=0;html=1;align=left;verticalAlign=bottom;" connectable="0" vertex="1" parent="lbVcA_wqIR2xqUrgAl_o-61">
          <mxGeometry x="-1" relative="1" as="geometry" />
        </mxCell>
        <mxCell id="lbVcA_wqIR2xqUrgAl_o-63" value="1" style="edgeLabel;resizable=0;html=1;align=right;verticalAlign=bottom;" connectable="0" vertex="1" parent="lbVcA_wqIR2xqUrgAl_o-61">
          <mxGeometry x="1" relative="1" as="geometry">
            <mxPoint x="90" y="29" as="offset" />
          </mxGeometry>
        </mxCell>
        <mxCell id="lbVcA_wqIR2xqUrgAl_o-65" value="" style="endArrow=diamondThin;endFill=0;endSize=24;html=1;rounded=0;exitX=0;exitY=0.5;exitDx=0;exitDy=0;entryX=1.005;entryY=1.03;entryDx=0;entryDy=0;entryPerimeter=0;" edge="1" parent="1" source="lbVcA_wqIR2xqUrgAl_o-18" target="lbVcA_wqIR2xqUrgAl_o-34">
          <mxGeometry width="160" relative="1" as="geometry">
            <mxPoint x="520" y="520" as="sourcePoint" />
            <mxPoint x="680" y="520" as="targetPoint" />
            <Array as="points">
              <mxPoint x="720" y="472" />
            </Array>
          </mxGeometry>
        </mxCell>
        <mxCell id="lbVcA_wqIR2xqUrgAl_o-68" value="movie" style="text;html=1;align=center;verticalAlign=middle;resizable=0;points=[];autosize=1;strokeColor=none;fillColor=none;" vertex="1" parent="1">
          <mxGeometry x="190" y="20" width="60" height="30" as="geometry" />
        </mxCell>
        <mxCell id="lbVcA_wqIR2xqUrgAl_o-69" value="&lt;div&gt;«Entity»&lt;/div&gt;Movie" style="swimlane;fontStyle=1;align=center;verticalAlign=top;childLayout=stackLayout;horizontal=1;startSize=40;horizontalStack=0;resizeParent=1;resizeParentMax=0;resizeLast=0;collapsible=1;marginBottom=0;whiteSpace=wrap;html=1;" vertex="1" parent="1">
          <mxGeometry x="440" y="660" width="160" height="150" as="geometry" />
        </mxCell>
        <mxCell id="lbVcA_wqIR2xqUrgAl_o-70" value="- title: String&lt;div&gt;- genre: String&lt;/div&gt;&lt;div&gt;- rating: Double&lt;/div&gt;&lt;div&gt;- duration: int&lt;/div&gt;" style="text;strokeColor=none;fillColor=none;align=left;verticalAlign=top;spacingLeft=4;spacingRight=4;overflow=hidden;rotatable=0;points=[[0,0.5],[1,0.5]];portConstraint=eastwest;whiteSpace=wrap;html=1;" vertex="1" parent="lbVcA_wqIR2xqUrgAl_o-69">
          <mxGeometry y="40" width="160" height="70" as="geometry" />
        </mxCell>
        <mxCell id="lbVcA_wqIR2xqUrgAl_o-71" value="" style="line;strokeWidth=1;fillColor=none;align=left;verticalAlign=middle;spacingTop=-1;spacingLeft=3;spacingRight=3;rotatable=0;labelPosition=right;points=[];portConstraint=eastwest;strokeColor=inherit;" vertex="1" parent="lbVcA_wqIR2xqUrgAl_o-69">
          <mxGeometry y="110" width="160" height="8" as="geometry" />
        </mxCell>
        <mxCell id="lbVcA_wqIR2xqUrgAl_o-72" value="+ getDetails(): String" style="text;strokeColor=none;fillColor=none;align=left;verticalAlign=top;spacingLeft=4;spacingRight=4;overflow=hidden;rotatable=0;points=[[0,0.5],[1,0.5]];portConstraint=eastwest;whiteSpace=wrap;html=1;" vertex="1" parent="lbVcA_wqIR2xqUrgAl_o-69">
          <mxGeometry y="118" width="160" height="32" as="geometry" />
        </mxCell>
        <mxCell id="lbVcA_wqIR2xqUrgAl_o-73" value="1" style="text;html=1;align=center;verticalAlign=middle;resizable=0;points=[];autosize=1;strokeColor=none;fillColor=none;" vertex="1" parent="1">
          <mxGeometry x="830" y="995" width="30" height="30" as="geometry" />
        </mxCell>
        <mxCell id="lbVcA_wqIR2xqUrgAl_o-74" value="1" style="text;html=1;align=center;verticalAlign=middle;resizable=0;points=[];autosize=1;strokeColor=none;fillColor=none;" vertex="1" parent="1">
          <mxGeometry x="730" y="930" width="30" height="30" as="geometry" />
        </mxCell>
      </root>
    </mxGraphModel>
  </diagram>
</mxfile>
